<?xml version="1.0" standalone="no"?>
<!DOCTYPE svg PUBLIC "-//W3C//DTD SVG 20010904//EN"
 "http://www.w3.org/TR/2001/REC-SVG-20010904/DTD/svg10.dtd">
<svg version="1.0" xmlns="http://www.w3.org/2000/svg"
 width="200.000000pt" height="200.000000pt" viewBox="0 0 200.000000 200.000000"
 preserveAspectRatio="xMidYMid meet">

<g transform="translate(0.000000,200.000000) scale(0.100000,-0.100000)"
fill="#000000" stroke="none">
<path d="M190 1105 l0 -415 745 0 745 0 0 185 0 185 65 0 65 0 0 35 0 35 -65
0 -65 0 0 195 0 195 -745 0 -745 0 0 -415z m1410 185 l0 -160 -60 0 -60 0 0
-35 0 -35 60 0 60 0 0 -155 0 -155 -670 0 -670 0 0 350 0 350 670 0 670 0 0
-160z"/>
<path d="M600 1140 c0 -152 1 -160 20 -160 18 0 20 8 22 103 3 94 4 102 23
102 19 0 20 -8 23 -102 2 -95 4 -103 22 -103 19 0 20 7 20 103 0 122 -10 144
-58 134 l-32 -6 0 44 c0 38 -3 45 -20 45 -19 0 -20 -7 -20 -160z"/>
<path d="M449 1259 c-30 -30 -20 -78 31 -141 45 -57 52 -103 15 -103 -14 0
-21 8 -25 30 -7 41 -34 40 -38 -2 -5 -53 57 -81 106 -47 38 26 30 78 -24 149
-46 61 -54 97 -21 103 12 3 21 -6 28 -27 14 -40 39 -41 39 -3 0 57 -69 83
-111 41z"/>
<path d="M785 1196 c-25 -38 -18 -182 10 -202 26 -20 59 -17 79 5 24 26 32
124 14 176 -12 36 -17 40 -50 43 -30 3 -40 -1 -53 -22z m71 -42 c14 -74 -12
-172 -36 -134 -11 17 -14 153 -3 163 16 17 33 4 39 -29z"/>
<path d="M940 1065 c0 -148 1 -155 20 -155 17 0 20 7 20 40 0 38 1 39 29 34
41 -8 51 16 51 123 0 94 -8 113 -45 113 -12 0 -26 -5 -33 -12 -9 -9 -12 -9
-12 0 0 7 -7 12 -15 12 -13 0 -15 -24 -15 -155z m78 38 c-2 -70 -6 -88 -18
-88 -12 0 -16 18 -18 88 -3 82 -2 87 18 87 20 0 21 -5 18 -87z"/>
<path d="M1110 1065 c0 -148 1 -155 20 -155 17 0 20 7 20 39 0 35 2 38 23 34
44 -9 57 19 57 121 0 97 -7 116 -45 116 -12 0 -26 -5 -33 -12 -9 -9 -12 -9
-12 0 0 7 -7 12 -15 12 -13 0 -15 -24 -15 -155z m78 38 c-2 -70 -6 -88 -18
-88 -12 0 -16 18 -18 88 -3 82 -2 87 18 87 20 0 21 -5 18 -87z"/>
<path d="M1260 1213 c0 -5 11 -55 25 -113 30 -128 31 -146 5 -160 -11 -6 -20
-15 -20 -20 0 -16 46 -12 60 5 7 8 25 77 40 152 23 117 25 139 12 141 -22 6
-30 -15 -38 -96 -8 -85 -15 -79 -33 26 -11 60 -16 72 -32 72 -10 0 -19 -3 -19
-7z"/>
<path d="M1056 623 c-11 -11 -6 -23 9 -23 8 0 15 4 15 9 0 13 -16 22 -24 14z"/>
<path d="M922 553 c2 -42 8 -68 16 -71 8 -2 12 8 12 32 0 24 5 39 16 43 20 7
34 -13 34 -49 0 -16 5 -28 11 -28 6 0 9 19 7 48 -3 46 -4 47 -35 47 -28 0 -33
4 -33 22 0 14 -6 23 -15 23 -13 0 -15 -12 -13 -67z"/>
<path d="M600 544 c0 -48 3 -65 13 -62 6 3 13 14 15 26 3 17 10 22 33 22 16 0
29 5 29 10 0 6 -13 10 -30 10 -23 0 -30 4 -30 20 0 16 7 20 30 20 17 0 30 5
30 10 0 6 -20 10 -45 10 l-45 0 0 -66z"/>
<path d="M715 570 c-4 -6 7 -10 24 -10 38 0 41 -18 4 -22 -18 -2 -29 -10 -31
-22 -5 -24 12 -34 52 -31 27 2 31 6 34 34 2 18 -2 39 -9 47 -13 16 -65 19 -74
4z m55 -49 c0 -14 -18 -23 -30 -16 -6 4 -8 11 -5 16 8 12 35 12 35 0z"/>
<path d="M827 573 c-18 -17 -5 -42 23 -48 17 -4 27 -11 24 -17 -3 -5 -17 -7
-30 -4 -13 4 -24 2 -24 -3 0 -14 29 -22 56 -15 28 7 33 42 7 50 -45 15 -48 18
-23 22 42 6 48 22 9 22 -20 0 -39 -3 -42 -7z"/>
<path d="M1050 529 c0 -66 24 -62 28 4 2 37 0 47 -12 47 -12 0 -16 -12 -16
-51z"/>
<path d="M1112 568 c-37 -37 15 -102 63 -80 18 8 25 20 25 40 0 35 -16 52 -50
52 -14 0 -31 -5 -38 -12z m65 -24 c3 -8 -2 -23 -11 -32 -16 -16 -18 -16 -31 1
-7 11 -11 25 -8 33 7 19 42 18 50 -2z"/>
<path d="M1230 529 c0 -57 17 -66 22 -11 2 29 7 37 23 37 16 0 21 -8 23 -37 5
-56 24 -46 20 10 l-3 47 -42 1 -43 2 0 -49z"/>
</g>
</svg>
