<?xml version="1.0" standalone="no"?>
<!DOCTYPE svg PUBLIC "-//W3C//DTD SVG 20010904//EN"
 "http://www.w3.org/TR/2001/REC-SVG-20010904/DTD/svg10.dtd">
<svg version="1.0" xmlns="http://www.w3.org/2000/svg"
 width="200.000000pt" height="200.000000pt" viewBox="0 0 200.000000 200.000000"
 preserveAspectRatio="xMidYMid meet">

<g transform="translate(0.000000,200.000000) scale(0.100000,-0.100000)"
fill="black" stroke="none">
<path d="M190 1105 l0 -415 745 0 745 0 0 185 0 185 65 0 65 0 0 35 0 35 -65
0 -65 0 0 195 0 195 -745 0 -745 0 0 -415z m1410 185 l0 -160 -60 0 -60 0 0
-35 0 -35 60 0 60 0 0 -155 0 -155 -670 0 -670 0 0 350 0 350 670 0 670 0 0
-160z"/>
<path d="M600 1140 c0 -152 1 -160 20 -160 18 0 20 8 22 103 3 94 4 102 23
102 19 0 20 -8 23 -102 2 -95 4 -103 22 -103 19 0 20 7 20 103 0 122 -10 144
-58 134 l-32 -6 0 44 c0 38 -3 45 -20 45 -19 0 -20 -7 -20 -160z"/>
<path d="M446 1258 c-27 -38 -19 -71 29 -134 50 -64 58 -109 20 -109 -14 0
-21 8 -25 30 -3 18 -12 31 -23 33 -24 5 -24 -59 1 -81 25 -22 75 -21 95 1 31
34 21 84 -28 148 -48 62 -56 99 -20 99 14 0 21 -8 25 -30 7 -41 34 -40 38 1 4
40 -19 64 -63 64 -24 0 -39 -7 -49 -22z"/>
<path d="M784 1195 c-24 -37 -17 -181 11 -201 27 -20 59 -17 80 6 25 28 32
134 12 183 -14 33 -20 37 -51 37 -27 0 -40 -6 -52 -25z m71 -46 c13 -76 -12
-165 -36 -128 -10 16 -12 153 -2 162 16 17 32 4 38 -34z"/>
<path d="M940 1059 c0 -147 1 -160 18 -157 12 2 18 15 20 44 3 38 5 40 31 36
44 -6 56 18 56 118 0 94 -11 120 -49 120 -12 0 -27 -5 -34 -12 -9 -9 -12 -9
-12 0 0 7 -7 12 -15 12 -13 0 -15 -25 -15 -161z m78 44 c-2 -70 -6 -88 -18
-88 -12 0 -16 18 -18 88 -3 82 -2 87 18 87 20 0 21 -5 18 -87z"/>
<path d="M1110 1059 c0 -147 1 -160 18 -157 12 2 18 15 20 44 3 38 5 41 29 36
42 -8 53 19 53 123 0 96 -8 115 -45 115 -12 0 -26 -5 -33 -12 -9 -9 -12 -9
-12 0 0 7 -7 12 -15 12 -13 0 -15 -25 -15 -161z m78 44 c-2 -70 -6 -88 -18
-88 -12 0 -16 18 -18 88 -3 82 -2 87 18 87 20 0 21 -5 18 -87z"/>
<path d="M1260 1211 c0 -5 11 -57 25 -115 30 -129 31 -140 3 -158 -25 -17 -17
-38 13 -31 32 9 45 39 68 163 12 63 24 123 27 133 4 12 0 17 -14 17 -25 0 -30
-13 -38 -96 -7 -69 -17 -68 -28 1 -15 88 -17 95 -37 95 -10 0 -19 -4 -19 -9z"/>
<path d="M1050 616 c0 -9 7 -16 16 -16 17 0 14 22 -4 28 -7 2 -12 -3 -12 -12z"/>
<path d="M922 553 c3 -74 25 -100 30 -36 2 26 8 39 20 41 14 3 19 -6 24 -37 9
-57 26 -52 22 7 -3 45 -4 47 -35 50 -25 2 -33 8 -33 23 0 10 -7 19 -15 19 -13
0 -15 -12 -13 -67z"/>
<path d="M600 544 c0 -48 3 -65 13 -62 6 3 13 14 15 26 3 17 10 22 33 22 16 0
29 5 29 10 0 6 -13 10 -30 10 -23 0 -30 4 -30 20 0 16 7 20 30 20 17 0 30 5
30 10 0 6 -20 10 -45 10 l-45 0 0 -66z"/>
<path d="M710 570 c0 -5 14 -10 30 -10 38 0 40 -18 3 -22 -20 -2 -29 -9 -31
-25 -3 -23 16 -33 58 -29 20 2 26 9 28 35 2 18 -2 39 -9 47 -13 16 -79 19 -79
4z m60 -49 c0 -14 -18 -23 -30 -16 -6 4 -8 11 -5 16 8 12 35 12 35 0z"/>
<path d="M827 573 c-18 -17 -6 -44 23 -49 16 -4 27 -11 24 -16 -4 -5 -17 -7
-30 -4 -13 4 -24 2 -24 -3 0 -14 37 -23 61 -16 28 9 22 49 -8 53 -31 5 -29 22
2 22 14 0 25 5 25 10 0 11 -63 14 -73 3z"/>
<path d="M1050 529 c0 -66 24 -62 28 4 2 37 0 47 -12 47 -12 0 -16 -12 -16
-51z"/>
<path d="M1112 568 c-27 -27 -3 -88 34 -88 31 0 54 21 54 48 0 35 -16 52 -50
52 -14 0 -31 -5 -38 -12z m62 -24 c8 -21 -1 -34 -25 -34 -12 0 -19 7 -19 18 0
34 33 45 44 16z"/>
<path d="M1230 529 c0 -57 17 -66 22 -11 2 29 7 37 23 37 16 0 21 -8 23 -37 5
-56 24 -46 20 10 l-3 47 -42 1 -43 2 0 -49z"/>
</g>
</svg>
